<svg xmlns="http://www.w3.org/2000/svg" width="376.313" height="369.585" viewBox="0 0 376.313 369.585">
  <g id="Group_26" data-name="Group 26" transform="translate(-761.688 -144.073)">
    <g id="Group_24" data-name="Group 24">
      <g id="Group_23" data-name="Group 23">
        <g id="Group_22" data-name="Group 22">
          <g id="Group_3" data-name="Group 3">
            <circle id="Ellipse_3" data-name="Ellipse 3" cx="35.974" cy="35.974" r="35.974" transform="matrix(0.341, -0.94, 0.94, 0.341, 761.688, 413.583)" fill="#3346d2"/>
            <g id="Group_2" data-name="Group 2">
              <path id="Path_15" data-name="Path 15" d="M784.491,388.516c.552,1.241-1.118,3.188-3.73,4.351s-5.176,1.1-5.728-.142,1.117-3.188,3.729-4.351S783.938,387.275,784.491,388.516Z" fill="#ecf2fe"/>
              <path id="Path_16" data-name="Path 16" d="M789.652,400.115c.553,1.241-1.117,3.189-3.729,4.351s-5.176,1.1-5.729-.142,1.118-3.188,3.73-4.351S789.1,398.875,789.652,400.115Z" fill="#ecf2fe"/>
              <path id="Path_17" data-name="Path 17" d="M794.814,411.714c.553,1.241-1.117,3.189-3.729,4.351s-5.177,1.1-5.729-.142,1.118-3.188,3.73-4.35S794.262,410.474,794.814,411.714Z" fill="#ecf2fe"/>
            </g>
          </g>
          <g id="Group_4" data-name="Group 4">
            <path id="Path_18" data-name="Path 18" d="M926.549,389.458s-5.068,18.529,8.161,29.8c10.916,9.3-9.4,15.8-27.772,6.977S910.227,381.425,926.549,389.458Z" fill="#ff4a36"/>
          </g>
          <g id="Group_5" data-name="Group 5">
            <path id="Path_19" data-name="Path 19" d="M926.549,389.458c-11.536-5.677-25.673,10.62-26.523,23.788l1.02,2.292,27.219-4.84C923.567,400.485,926.549,389.458,926.549,389.458Z" fill="#ff4a36"/>
          </g>
          <g id="Group_6" data-name="Group 6">
            <path id="Path_20" data-name="Path 20" d="M974.1,497.732a170.248,170.248,0,0,1-72.118,15.926h-.848c-6.508-6.826-11.85-15.184-16.56-23.651-6.085-10.954-16.4-21.482-21.165-33.018-1.9-4.655-4.074-9.735-5.978-14.974-.372-.951-.69-1.9-1.005-2.909-.373-1.06-.742-2.116-1.06-3.227-.263-.848-.529-1.747-.741-2.594-.264-1.005-.53-1.958-.739-2.963a17.376,17.376,0,0,1-.478-2.274c-.158-.69-.264-1.377-.369-2.064-.158-.688-.212-1.429-.318-2.116-.106-.793-.158-1.535-.212-2.276-.052-.951-.106-1.9-.106-2.858,0-.635,0-1.268.054-1.9a10.928,10.928,0,0,1,.106-1.323,13.219,13.219,0,0,1,.951-4.549c3.281-7.886,25.5-13.918,34.235-16.034,2.222-.53,3.6-.793,3.6-.793,3.442,3.968,6.932,7.882,10.371,11.8,1.007,1.165,2.012,2.328,3.017,3.439,1.429,1.589,2.8,3.175,4.232,4.761,4.71,5.452,9.472,10.849,14.233,16.246.636.739,1.323,1.48,1.959,2.222.953,1.111,1.958,2.222,2.911,3.281h.052c10.582,11.851,21.8,23.175,31.535,35.821C965.479,479.265,972.2,488.049,974.1,497.732Z" fill="#3346d2"/>
          </g>
          <g id="Group_7" data-name="Group 7">
            <path id="Path_21" data-name="Path 21" d="M928.138,435.889c-1.017-1.1-2.01-2.2-2.955-3.272q-16.929-19.236-33.853-38.472s-33.717,6.9-37.832,16.837a17.553,17.553,0,0,0-1.051,5.869c-.418,8.09,1.945,16.837,4.975,25.182Z" fill="#3346d2"/>
          </g>
          <g id="Group_8" data-name="Group 8">
            <path id="Path_22" data-name="Path 22" d="M1022,144.3l113.224,254.421c-95.1-9.1-136.127-31.538-256.75,21.478-11.938,5.247-24.965.01-29.341-9.825L821.84,349.045c-4.376-9.834.693-22.53,12.342-28.374C952.076,261.523,973.187,215.45,1022,144.3Z" fill="#ecf2fe"/>
          </g>
          <path id="Path_23" data-name="Path 23" d="M1035.9,175.54a193.746,193.746,0,0,1,1.684,25.363c0,97.46-73.022,181.354-178.052,219.374a23.46,23.46,0,0,0,18.94-.077c120.622-53.015,161.647-30.577,256.751-21.477Z" fill="#ecf2fe"/>
          <g id="Group_9" data-name="Group 9">
            <path id="Path_24" data-name="Path 24" d="M1097.511,263.11c31.266,70.256,47.359,131.328,37.7,135.628s-26.483,11.786-83.095-115.425c-57.758-129.785-39.793-134.695-30.13-138.995S1066.245,192.854,1097.511,263.11Z" fill="#ff4a36"/>
          </g>
          <g id="Group_10" data-name="Group 10">
            <path id="Path_25" data-name="Path 25" d="M1089.012,266.892c25.067,56.327,42,103.5,37.814,105.359s-27.893-42.292-52.96-98.619-42-103.5-37.815-105.359S1063.944,210.565,1089.012,266.892Z" fill="#ff4a36"/>
          </g>
          <g id="Group_11" data-name="Group 11">
            <path id="Path_26" data-name="Path 26" d="M1096.278,224.009l-24.334,5.966-15.137,3.724c5.034,12.355,10.821,25.879,17.081,39.947s12.412,27.37,18.221,39.379l12.9-8.752,20.72-14.085a16.062,16.062,0,0,0,5.6-19.809l-16.587-37.273A16.063,16.063,0,0,0,1096.278,224.009Z" fill="#3346d2"/>
          </g>
          <g id="Group_12" data-name="Group 12">
            <path id="Path_27" data-name="Path 27" d="M1101.433,235.428c1.24,2.786-3.542,7.62-10.681,10.8s-13.931,3.494-15.171.708,3.542-7.619,10.681-10.8S1100.193,232.643,1101.433,235.428Z" fill="#ecf2fe"/>
          </g>
          <g id="Group_13" data-name="Group 13">
            <path id="Rectangle_3" data-name="Rectangle 3" d="M31.539,0H85.615A3.488,3.488,0,0,1,89.1,3.488V115.563a3.488,3.488,0,0,1-3.488,3.488H31.539A31.539,31.539,0,0,1,0,87.512V31.539A31.539,31.539,0,0,1,31.539,0Z" transform="matrix(0.914, -0.407, 0.407, 0.914, 767.823, 344.518)" fill="#ff4a36"/>
          </g>
          <g id="Group_14" data-name="Group 14">
            <path id="Path_28" data-name="Path 28" d="M791.5,373.7l-.1.046a2.647,2.647,0,0,1-3.434-1.487c-7.984-20.156,9.676-34.276,20.128-38.927a2.646,2.646,0,0,1,2.154,4.833c-1.043.469-25.467,11.684-17.365,32.144A2.643,2.643,0,0,1,791.5,373.7Z" fill="#ff4a36"/>
          </g>
          <g id="Group_15" data-name="Group 15">
            <path id="Path_29" data-name="Path 29" d="M824.535,328.911a3.364,3.364,0,1,0-1.706,4.442A3.365,3.365,0,0,0,824.535,328.911Z" fill="#ff4a36"/>
          </g>
          <g id="Group_16" data-name="Group 16">
            <path id="Path_30" data-name="Path 30" d="M881.183,317.648a5.291,5.291,0,0,1-4.311-9.664c81.885-36.622,115.955-102.42,116.289-103.083a5.291,5.291,0,0,1,9.446,4.771c-1.427,2.83-35.943,69.748-121.415,107.972Z" fill="#fff"/>
          </g>
          <g id="Group_17" data-name="Group 17">
            <path id="Path_31" data-name="Path 31" d="M1047.589,256.245a2.644,2.644,0,0,1-3.492-1.342c-6.881-15.46-29.214-68.153-27.682-97.023a2.646,2.646,0,0,1,5.284.284c-1.167,22,13.3,63.289,27.232,94.588A2.646,2.646,0,0,1,1047.589,256.245Z" fill="#ff4a36"/>
          </g>
          <g id="Group_18" data-name="Group 18">
            <path id="Path_32" data-name="Path 32" d="M1023.284,148.727a3.063,3.063,0,1,0-1.553,4.044A3.062,3.062,0,0,0,1023.284,148.727Z" fill="#ff4a36"/>
          </g>
          <g id="Group_19" data-name="Group 19">
            <path id="Path_33" data-name="Path 33" d="M888.108,471.762a2.645,2.645,0,0,1-2.151-4.834l29.918-13.314a2.646,2.646,0,1,1,2.152,4.834" fill="#fff"/>
          </g>
          <g id="Group_20" data-name="Group 20">
            <path id="Path_34" data-name="Path 34" d="M933.95,476.4,904.031,489.72a2.645,2.645,0,1,1-2.151-4.834L931.8,471.571a2.645,2.645,0,0,1,2.151,4.834Z" fill="#fff"/>
          </g>
          <g id="Group_21" data-name="Group 21">
            <path id="Path_35" data-name="Path 35" d="M948.612,494.923l-29.918,13.315a2.646,2.646,0,0,1-2.152-4.834l29.919-13.315a2.645,2.645,0,1,1,2.151,4.834Z" fill="#fff"/>
          </g>
          <path id="Path_36" data-name="Path 36" d="M895.92,413.206l-26.9-60.443a106.042,106.042,0,0,1-53.6,82.574,38.064,38.064,0,0,0,35.615,2.457l42.746-19.023A4.216,4.216,0,0,0,895.92,413.206Z" fill="#ff4a36"/>
        </g>
      </g>
    </g>
  </g>
</svg>
