<svg xmlns="http://www.w3.org/2000/svg" width="360.61" height="360.61" viewBox="0 0 360.61 360.61">
  <g id="Group_25" data-name="Group 25" transform="translate(-152.444 -149.494)">
    <g id="Group_1" data-name="Group 1">
      <path id="Path_2" data-name="Path 2" d="M245.423,366.2l-9.117,9.118a11.137,11.137,0,0,0,0,15.751l35.177,35.177a11.137,11.137,0,0,0,15.751,0l9.118-9.117Z" fill="#3346d2"/>
      <path id="Path_3" data-name="Path 3" d="M513.054,149.494C399.728,163.4,294.826,275.4,294.826,275.4l-.055-.056-70.1,70.1L317.1,437.875l70.1-70.1-.056-.055S499.147,262.82,513.054,149.494Z" fill="#ecf2fe"/>
      <path id="Path_4" data-name="Path 4" d="M294.771,275.348S243,243.033,182.628,303.4l-30.184,30.184,13.672,13.672s46.745-42.622,73.057-16.31Z" fill="#3346d2"/>
      <path id="Path_5" data-name="Path 5" d="M387.2,367.777s32.315,51.775-28.052,112.143L328.964,510.1l-13.672-13.672s42.623-46.745,16.31-73.057Z" fill="#3346d2"/>
      <circle id="Ellipse_1" data-name="Ellipse 1" cx="43.758" cy="43.758" r="43.758" transform="translate(334.174 240.858)" fill="#3346d2"/>
      <circle id="Ellipse_2" data-name="Ellipse 2" cx="33.228" cy="33.228" r="33.228" transform="translate(344.705 251.388)" fill="#ff4a36"/>
      <rect id="Rectangle_2" data-name="Rectangle 2" width="14.484" height="130.714" transform="translate(258.17 311.949) rotate(-45)" fill="#3346d2"/>
      <path id="Path_6" data-name="Path 6" d="M271.483,426.242l-17.589-17.588-17.588-17.589s-53.6,17.513-50.939,86.116C253.97,479.841,271.483,426.242,271.483,426.242Z" fill="#ff4a36"/>
      <path id="Path_7" data-name="Path 7" d="M265.665,420.424l-11.771-11.77-11.77-11.771s-35.869,11.72-34.089,57.63C253.945,456.293,265.665,420.424,265.665,420.424Z" fill="#ff4a36"/>
      <path id="Path_8" data-name="Path 8" d="M465,271.688c22.592-35.743,42.673-78.331,48.055-122.194-43.863,5.382-86.451,25.464-122.194,48.055Z" fill="#ff4a36"/>
      <path id="Path_9" data-name="Path 9" d="M387.2,367.777l-.056-.055s20.791-19.481,45.567-50.7C338.289,373.753,271.3,368.5,239.3,360.073l77.8,77.8Z" fill="#ecf2fe"/>
      <path id="Path_10" data-name="Path 10" d="M309.616,363.395,350.6,404.378l10.242-10.242-33.724-33.724Q318.016,362.3,309.616,363.395Z" fill="#3346d2"/>
      <path id="Path_11" data-name="Path 11" d="M401.153,199.512s60.082-39.891,104.385-42.5c0,0-54.906,18.537-94.565,52.321Z" fill="#ff4a36"/>
      <path id="Path_12" data-name="Path 12" d="M409.191,295.889c-15.563,6.551-39.815,14.817-59.951,5.495a33.234,33.234,0,0,0,59.951-5.495Z" fill="#ff4a36"/>
      <path id="Path_13" data-name="Path 13" d="M271.483,426.242a11.137,11.137,0,0,0,15.751,0l9.118-9.117h0c-.016,0-28.488-2.165-62.312-29.357a11.088,11.088,0,0,0,2.267,3.3Z" fill="#3346d2"/>
      <path id="Path_14" data-name="Path 14" d="M359.148,479.92c2.082-2.082,4.043-4.152,5.909-6.212a225.347,225.347,0,0,1-46.979,19.446c-1.706,2.093-2.786,3.278-2.786,3.278L328.964,510.1Z" fill="#3346d2"/>
    </g>
  </g>
</svg>
